# xmcd
#
# Track frame offsets:
# 182
# 12637
# 23735
# 33735
# 46097
# 57560
# 67612
# 83430
# 96645
# 115725
# 131745
# 142555
# 156240
# 168362
# 181627
# 194480
# 208677
# 221285
# 235762
# 250705
# 262077
#
# Disc length: 3672 seconds
#
#
# Revision: 0
# Processed by: cddbd v1.4PL0 Copyright (c) Steve Scherf et al.
# Submitted via: FreeRIP 2.35 
#
DISCID=1b0e5615
DTITLE=Billie Jo Spears - Country Classic Disc 3
DYEAR=1900
DGENRE=Country
TTITLE0=What I've Got In Mind
TTITLE1=If You Want Me
TTITLE2=Never Did Like Whiskey
TTITLE3=Lonely Hearts Club
TTITLE4=Heart Over Mind
TTITLE5=Put A Little Love In Your Heart
TTITLE6=Tha Angel in Your Arms
TTITLE7=What The World Needs Now Is Love
TTITLE8=Everything Is Beautiful
TTITLE9=I've never Loved Anyone More
TTITLE10=He's Got More love in His Little Finger
TTITLE11=Mr. Walker, It's All Over
TTITLE12=Seeing Is Believing
TTITLE13=You And Your Sweet Love
TTITLE14=Softly And tenderly
TTITLE15=See The Funny Little Clown
TTITLE16=Then Give Him Back To Me
TTITLE17=Husbands And Wives
TTITLE18=Too Far Gone
TTITLE19=True Love
TTITLE20=Every Word I Write
EXTD=Reader's Digest Collection disc 3
EXTT0=
EXTT1=
EXTT2=
EXTT3=
EXTT4=
EXTT5=
EXTT6=
EXTT7=
EXTT8=
EXTT9=
EXTT10=
EXTT11=
EXTT12=
EXTT13=
EXTT14=
EXTT15=
EXTT16=
EXTT17=
EXTT18=
EXTT19=
EXTT20=
PLAYORDER=
